<svg width="50" height="40" viewBox="0 0 50 40" fill="none" xmlns="http://www.w3.org/2000/svg">
<path d="M25 0C11.25 0 0 9.01607 0 20.1205C0 30.1606 9.14999 38.494 21.1 40V25.9438H14.75V20.1205H21.1V15.6827C21.1 10.6426 24.825 7.87149 30.55 7.87149C33.275 7.87149 36.125 8.25301 36.125 8.25301V13.2129H32.975C29.875 13.2129 28.9 14.759 28.9 16.3454V20.1205H35.85L34.725 25.9438H28.9V40C34.7911 39.2527 40.1555 36.8384 44.0248 33.1929C47.8941 29.5474 50.0133 24.9109 49.9999 20.1205C49.9999 9.01607 38.75 0 25 0Z" fill="#284BB5"/>
</svg>
