<svg width="40" height="40" viewBox="0 0 40 40" fill="none" xmlns="http://www.w3.org/2000/svg">
<rect width="40" height="40" rx="20" fill="#0084FF"/>
<path d="M36.3393 11.4453C36.6784 11.0499 36.2476 10.4829 35.7493 10.6346C35.2133 10.7976 34.8296 9.98109 35.1846 9.54767C35.365 9.32741 35.5326 9.09596 35.6863 8.85441C36.0318 8.31148 35.4134 7.77229 34.8226 8.02745C34.1613 8.31309 33.4754 8.54935 32.7707 8.73622C32.2548 8.87302 31.7205 8.68271 31.3141 8.3367C30.0632 7.2714 28.4556 6.66663 26.6667 6.66663C22.75 6.66663 19.55 9.86663 19.55 13.8166C19.55 14.6439 18.9137 15.4089 18.0935 15.3007C14.1357 14.7785 10.5286 13.117 7.62672 10.6597C6.23835 9.48414 4.03332 9.74739 4.03332 11.5666C4.03332 13.2269 4.59202 14.7605 5.5401 15.9682C5.95444 16.496 5.61358 17.3293 4.98063 17.1066C4.645 16.9884 4.32129 16.8476 4.0111 16.6895C3.99079 16.6791 3.96665 16.6938 3.96665 16.7166C3.96665 19.3642 5.40536 21.6812 7.54037 22.9179C8.04102 23.2079 7.98279 24.0061 7.40536 23.9698C6.9886 23.9436 6.64482 24.3365 6.82219 24.7145C7.3194 25.7742 8.07204 26.6998 9.01834 27.4048C10.2148 28.2962 10.6982 30.4656 9.30042 30.9873C7.70174 31.5839 5.99725 31.8917 4.26665 31.8833C3.84951 31.8833 3.66857 32.4477 4.03717 32.643C6.87399 34.1462 10.1075 35 13.5333 35C26.6667 35 33.8833 24.1 33.8833 14.65C33.8833 14.5716 33.8833 14.4942 33.8831 14.4174C33.8816 13.9807 34.0846 13.5664 34.4262 13.2944C35.1198 12.7421 35.759 12.122 36.3393 11.4453Z" fill="white"/>
</svg>
