<svg width="15" height="17" viewBox="0 0 15 17" fill="none" xmlns="http://www.w3.org/2000/svg">
<path fill-rule="evenodd" clip-rule="evenodd" d="M6.87501 0.5C5.85845 0.500087 4.85666 0.743273 3.9532 1.20927C3.04974 1.67527 2.27083 2.35056 1.68143 3.17882C1.09204 4.00707 0.709264 4.96426 0.565038 5.97053C0.420812 6.97681 0.519319 8.00298 0.852341 8.96344C1.18536 9.9239 1.74324 10.7908 2.47943 11.4918C3.21563 12.1928 4.10879 12.7076 5.08439 12.9932C6.06 13.2788 7.08976 13.327 8.08777 13.1337C9.08578 12.9404 10.0231 12.5112 10.8215 11.882L13.5605 14.621C13.702 14.7576 13.8914 14.8332 14.0881 14.8315C14.2847 14.8298 14.4728 14.7509 14.6119 14.6119C14.7509 14.4728 14.8298 14.2847 14.8315 14.0881C14.8332 13.8914 14.7576 13.702 14.621 13.5605L11.882 10.8215C12.623 9.88146 13.0844 8.7518 13.2133 7.56179C13.3423 6.37179 13.1336 5.16952 12.6112 4.09257C12.0887 3.01562 11.2737 2.10752 10.2592 1.47217C9.2448 0.83683 8.07198 0.49992 6.87501 0.5ZM2.00001 6.875C2.00001 5.58207 2.51362 4.34209 3.42786 3.42785C4.3421 2.51361 5.58208 2 6.87501 2C8.16794 2 9.40791 2.51361 10.3222 3.42785C11.2364 4.34209 11.75 5.58207 11.75 6.875C11.75 8.16793 11.2364 9.40791 10.3222 10.3221C9.40791 11.2364 8.16794 11.75 6.87501 11.75C5.58208 11.75 4.3421 11.2364 3.42786 10.3221C2.51362 9.40791 2.00001 8.16793 2.00001 6.875Z" fill="#8B8484"/>
</svg>
