<svg width="35" height="35" viewBox="0 0 35 35" fill="none" xmlns="http://www.w3.org/2000/svg">
<path d="M17.5 4.375H18.0731C16.1997 6.11582 14.9955 8.45811 14.6698 10.9947C14.3442 13.5313 14.9177 16.1018 16.2907 18.2594C17.6637 20.417 19.7493 22.0253 22.1851 22.8046C24.6208 23.584 27.2527 23.4852 29.6231 22.5254C28.7113 24.7195 27.221 26.6248 25.3111 28.0383C23.4013 29.4518 21.1436 30.3203 18.7788 30.5512C16.4141 30.7821 14.031 30.3668 11.8838 29.3495C9.73659 28.3323 7.9058 26.7512 6.5867 24.775C5.2676 22.7989 4.50969 20.5017 4.3938 18.1285C4.27791 15.7553 4.8084 13.3952 5.92867 11.2999C7.04895 9.20461 8.71699 7.4527 10.7549 6.23107C12.7927 5.00944 15.124 4.36391 17.5 4.36333V4.375Z" stroke="#8B8484" stroke-width="2" stroke-linecap="round" stroke-linejoin="round"/>
</svg>
