<svg width="21" height="21" viewBox="0 0 21 21" fill="none" xmlns="http://www.w3.org/2000/svg">
<path fill-rule="evenodd" clip-rule="evenodd" d="M8.2482 3.9884C4.95383 6.10415 3.12362 8.56684 2.75758 11.3765C2.18751 15.7502 6.09876 17.8908 8.08064 15.9676C10.0625 14.0443 8.8747 11.6027 7.4397 10.935C6.0047 10.2674 5.12708 10.5002 5.2802 9.60809C5.43333 8.71603 7.4747 6.24372 9.26845 5.09222C9.33193 5.0381 9.37241 4.96185 9.38168 4.87896C9.39094 4.79606 9.36829 4.71276 9.31833 4.64597L8.8747 4.0689C8.6822 3.81865 8.49758 3.82828 8.2482 3.98797M16.9221 3.9884C13.6277 6.10415 11.7975 8.56684 11.4315 11.3765C10.861 15.7502 14.7722 17.8908 16.7541 15.9676C18.736 14.0443 17.5481 11.6027 16.1127 10.935C14.6773 10.2674 13.8001 10.5002 13.9532 9.60809C14.1063 8.71603 16.1481 6.24372 17.9419 5.09222C18.0053 5.03804 18.0457 4.96176 18.0549 4.87887C18.0641 4.79598 18.0413 4.7127 17.9913 4.64597L17.5481 4.0689C17.3556 3.81865 17.171 3.82828 16.9221 3.98797" fill="#FF9D00"/>
</svg>
