<svg width="20" height="20" viewBox="0 0 20 20" fill="none" xmlns="http://www.w3.org/2000/svg">
<path d="M18.8336 0.87737C19.063 1.04558 19.1568 1.26985 19.1151 1.55019L16.446 17.6979C16.4113 17.9012 16.3001 18.0589 16.1124 18.171C16.0151 18.2271 15.9073 18.2551 15.7892 18.2551C15.7127 18.2551 15.6293 18.2376 15.539 18.2026L10.0443 15.9423L6.93733 19.38C6.81221 19.5272 6.64887 19.6008 6.4473 19.6008C6.34999 19.6008 6.27005 19.5867 6.20749 19.5587C6.07543 19.5097 5.97117 19.4273 5.89471 19.3117C5.81825 19.196 5.78002 19.0681 5.78002 18.9279V14.1761L0.858849 12.1472C0.601669 12.049 0.462653 11.8563 0.4418 11.5689C0.420948 11.2956 0.532161 11.0889 0.775439 10.9487L18.1247 0.856344C18.3679 0.709164 18.6043 0.716173 18.8336 0.87737ZM15.2679 16.6361L17.5721 2.72763L2.62088 11.4218L6.12408 12.862L15.1219 6.14431L10.1382 14.5231L15.2679 16.6361Z" fill="white"/>
</svg>
